<svg fill="none" height="17" viewBox="0 0 17 17" width="17" xmlns="http://www.w3.org/2000/svg"><g fill="#000"><path d="m10.6697 0c-.2853 2.36726-.3796 3.87046-.93714 4.84082-.91139 1.20609-2.49102 1.32096-5.39308 1.5935 2.85498.3511 4.39865.42721 5.31266 1.53208.68286.97815.79846 2.4911 1.01756 4.9023.3723-3.12718.4306-4.70628 1.7795-5.60493.9592-.47083 2.3904-.57362 4.5508-.82945-2.6788-.33358-4.2331-.41034-5.1584-1.24212-.7824-.9481-.8659-2.52242-1.1719-5.1922z"/><path d="m3.79816 9c-.1712 1.4204-.22781 2.3223-.56231 2.9045-.54682.7237-1.49463.7926-3.23585.9561 1.713.2107 2.63918.2563 3.1876.9193.40973.5868.47905 1.4947.61056 2.9413.22335-1.8763.25834-2.8238 1.0677-3.3629.57549-.2825 1.43421-.3442 2.73046-.4977-1.6073-.2001-2.53985-.2462-3.09505-.7453-.46946-.5688-.51953-1.5134-.70311-3.1153z"/></g></svg>