<svg width="33" height="33" viewBox="0 0 33 33" fill="none" xmlns="http://www.w3.org/2000/svg">
<path fill-rule="evenodd" clip-rule="evenodd" d="M12.3001 14.5202H4.46834C4.72214 10.7359 7.56955 7.7 10.8999 7.7V6.6C6.83193 6.6 3.60508 10.2702 3.36437 14.5563C3.0268 14.6202 2.70656 14.7668 2.415 14.9796C2.0145 15.2718 1.67271 15.6845 1.39666 16.1734C1.24386 16.444 1.0688 16.9123 0.923464 17.3471C0.773831 17.7947 0.636124 18.2669 0.564358 18.5754C0.516206 18.7823 0.50005 19.0912 0.493829 19.3948C0.487248 19.7161 0.491485 20.0907 0.499784 20.4605C0.508037 20.8281 0.519894 21.1826 0.53002 21.4854L0.53002 21.4854L0.53002 21.4854C0.540845 21.809 0.549692 22.0735 0.550044 22.2318V23.6172V24.0123L0.924456 24.1384L2.98157 24.8314L3.067 24.8602H3.15716H5.36105C5.62942 26.0543 6.75383 26.9502 8.10018 26.9502C9.44653 26.9502 10.5709 26.0543 10.8393 24.8602H24.8999H24.9607C25.2291 26.0543 26.3535 26.9502 27.6998 26.9502C29.0462 26.9502 30.1706 26.0542 30.439 24.8602H31.8999H32.4499V24.3102V18.0732C32.4499 17.2497 32.2315 16.5822 31.8425 16.0582C31.4574 15.5394 30.9349 15.2012 30.3897 14.9796C29.3193 14.5444 28.0588 14.5202 27.2608 14.5202H25.2346L22.493 9.24745C22.1788 8.64318 21.7774 8.11893 21.3123 7.7H23.4997V6.6H18.5785H18.3988H17.488H15.0998H10.9006V7.7H12.3001V14.5202ZM15.0998 7.7H13.4001V14.5202H15.6196V14.5202H23.9948L21.517 9.75491C20.8248 8.42372 19.7046 7.7 18.5785 7.7H18.3988H17.488H15.0998ZM27.2608 15.6202H23.6421V15.6202H3.75784H3.75421V15.6202C3.53918 15.6188 3.30565 15.6914 3.06342 15.8681C2.81782 16.0474 2.57259 16.328 2.35452 16.7142C2.26026 16.8812 2.11411 17.2549 1.96672 17.6958C1.82362 18.1239 1.69709 18.561 1.63575 18.8246C1.61734 18.9037 1.60006 19.1019 1.5936 19.4174C1.5875 19.7152 1.59133 20.0716 1.59951 20.4358C1.60692 20.7661 1.6183 21.1113 1.62839 21.4172L1.62839 21.4172L1.62839 21.4173C1.63988 21.7659 1.64969 22.0635 1.65004 22.2301L1.65005 22.2312L1.65004 23.2221L3.24731 23.7602H5.36105C5.62942 22.5662 6.75383 21.6702 8.10018 21.6702C9.44653 21.6702 10.5709 22.5662 10.8393 23.7602H13.7V23.7602L24.8999 23.7602H24.9607C25.2291 22.5662 26.3535 21.6702 27.6998 21.6702C29.0462 21.6702 30.1706 22.5662 30.439 23.7602H31.3499V18.0732C31.3499 17.4532 31.1892 17.0236 30.9593 16.7138C30.7255 16.3989 30.3893 16.1668 29.9754 15.9986C29.1277 15.6539 28.0686 15.6202 27.2608 15.6202ZM9.80016 24.3102C9.80016 25.1007 9.10092 25.8502 8.10018 25.8502C7.09943 25.8502 6.4002 25.1007 6.4002 24.3102C6.4002 23.5198 7.09943 22.7702 8.10018 22.7702C9.10092 22.7702 9.80016 23.5198 9.80016 24.3102ZM29.3998 24.3102C29.3998 25.1007 28.7006 25.8502 27.6998 25.8502C26.6991 25.8502 25.9999 25.1007 25.9999 24.3102C25.9999 23.5198 26.6991 22.7702 27.6998 22.7702C28.7006 22.7702 29.3998 23.5198 29.3998 24.3102Z" fill="#292929"/>
</svg>
