<svg width="30" height="30" viewBox="0 0 30 30" fill="none" xmlns="http://www.w3.org/2000/svg">
<path fill-rule="evenodd" clip-rule="evenodd" d="M16.1433 8.12077L18.0927 4.99607C18.5903 4.21903 19.4213 3.7117 20.231 3.553C21.0536 3.39176 21.7259 3.6034 22.0587 4.07219C22.388 4.53612 22.3573 5.20743 21.9225 5.89062C21.4927 6.56578 20.7186 7.14862 19.7917 7.33565L19.7916 7.33561L19.7853 7.33696L16.1433 8.12077ZM22.8741 3.49333C22.2299 2.58578 21.0813 2.36731 20.0386 2.57167C18.9838 2.77841 17.9059 3.43155 17.2487 4.45971L17.2486 4.45969L17.2457 4.46435L14.9914 8.07802L12.7623 4.57926L12.7619 4.57863C12.1015 3.5456 11.0193 2.91603 9.96642 2.72181C8.92963 2.53056 7.79088 2.74754 7.14549 3.59985C6.47383 4.48686 6.71467 5.61783 7.28219 6.47809C7.85942 7.35309 8.85601 8.1032 10.0159 8.34773L10.017 8.34795L10.8244 8.52171H3H2.5V9.02171V26.9142V27.4142H3H26.9823H27.4823V26.9142V9.02171V8.52171H26.9823H19.0333L19.9927 8.31524C21.196 8.07147 22.1971 7.32152 22.7661 6.42759C23.3305 5.54089 23.5218 4.40574 22.8741 3.49333ZM14.0907 9.52171L14.0448 9.59529L14.3867 9.52171H14.4912V11.917H3.5V9.52171H14.0907ZM3.5 12.917V26.4142H14.4912V12.917H3.5ZM15.4912 12.917V26.4142H26.4823V12.917H15.4912ZM26.4823 11.917V9.52171H15.9112L15.9811 9.63152L15.4912 9.52608V11.917H26.4823ZM9.78502 3.70522C8.95652 3.55239 8.27439 3.76551 7.94272 4.20352C7.63733 4.60684 7.66296 5.23931 8.11691 5.92743C8.56097 6.60056 9.34043 7.18359 10.223 7.3694L10.2252 7.36986L10.2252 7.36987L13.8517 8.15035L11.9193 5.11721L11.919 5.11685C11.4246 4.34364 10.5973 3.85506 9.78502 3.70522Z" fill="#292929"/>
</svg>
